<svg xmlns="http://www.w3.org/2000/svg" viewBox="0 0 1600 900"><defs><linearGradient id="gBlue" x1="0" x2="1" y1="0" y2="1"><stop offset="0" stop-color="#78d7ff"/><stop offset=".38" stop-color="#2388ff"/><stop offset=".72" stop-color="#2949ef"/><stop offset="1" stop-color="#7a4cff"/></linearGradient><radialGradient id="glow"><stop offset="0" stop-color="#2f80ed" stop-opacity=".85"/><stop offset=".42" stop-color="#1a5fe2" stop-opacity=".28"/><stop offset="1" stop-color="#061329" stop-opacity="0"/></radialGradient><filter id="shadow"><feDropShadow dx="0" dy="15" stdDeviation="18" flood-color="#006eff" flood-opacity=".38"/></filter><pattern id="grid" width="54" height="54" patternUnits="userSpaceOnUse"><path d="M54 0H0V54" fill="none" stroke="#2f80ed" stroke-opacity=".11"/></pattern></defs><rect width="1600" height="900" fill="#020712"/><rect width="1600" height="900" fill="url(#grid)"/><ellipse cx="1120" cy="390" rx="420" ry="280" fill="url(#glow)"/><g transform="translate(820 170)" filter="url(#shadow)"><g stroke="#2f80ed" stroke-width="3" fill="none" opacity=".7"><path d="M110 420L350 270 560 390 780 230"/><path d="M350 270L520 110"/><path d="M560 390L690 545"/></g><g><g transform="translate(0 290)"><polygon points="0,100 110,40 220,100 110,160" fill="#0d3677" stroke="#49a4ff" stroke-width="4"/><polygon points="0,100 110,160 110,265 0,205" fill="#06162e" stroke="#235a9e" stroke-width="3"/><polygon points="220,100 110,160 110,265 220,205" fill="#0b2552" stroke="#2f80ed" stroke-width="3"/></g><g transform="translate(290 150) scale(.9)"><polygon points="0,100 110,40 220,100 110,160" fill="url(#gBlue)" stroke="#75cfff" stroke-width="4"/><polygon points="0,100 110,160 110,265 0,205" fill="#08204b" stroke="#296cc3" stroke-width="3"/><polygon points="220,100 110,160 110,265 220,205" fill="#10306c" stroke="#4ca7ff" stroke-width="3"/></g><g transform="translate(520 270) scale(.78)"><polygon points="0,100 110,40 220,100 110,160" fill="#1d2f8b" stroke="#6b4dff" stroke-width="4"/><polygon points="0,100 110,160 110,265 0,205" fill="#0a1538" stroke="#4937b7" stroke-width="3"/><polygon points="220,100 110,160 110,265 220,205" fill="#1b1d58" stroke="#6b4dff" stroke-width="3"/></g><g transform="translate(735 105) scale(.58)"><polygon points="0,100 110,40 220,100 110,160" fill="#103a7d" stroke="#57b7ff" stroke-width="4"/><polygon points="0,100 110,160 110,265 0,205" fill="#06162e" stroke="#235a9e" stroke-width="3"/><polygon points="220,100 110,160 110,265 220,205" fill="#0b2552" stroke="#2f80ed" stroke-width="3"/></g></g></g></svg>