<svg xmlns="http://www.w3.org/2000/svg" viewBox="0 0 1200 760">
<defs>
<radialGradient id="halo"><stop stop-color="#2F80ED" stop-opacity=".42"/><stop offset=".42" stop-color="#174FB8" stop-opacity=".12"/><stop offset="1" stop-color="#020712" stop-opacity="0"/></radialGradient>
<linearGradient id="tower" x1="0" y1="0" x2="1" y2="1"><stop stop-color="#0B2C68"/><stop offset="1" stop-color="#03122B"/></linearGradient>
<filter id="glow"><feDropShadow dx="0" dy="0" stdDeviation="10" flood-color="#2F80ED" flood-opacity=".65"/></filter>
<pattern id="grid" width="46" height="46" patternUnits="userSpaceOnUse"><path d="M46 0H0V46" fill="none" stroke="#2F80ED" stroke-opacity=".07"/></pattern>
</defs>
<rect width="1200" height="760" fill="#020712"/><rect width="1200" height="760" fill="url(#grid)"/>
<ellipse cx="625" cy="565" rx="430" ry="230" fill="url(#halo)"/>
<g opacity=".48" stroke="#2465C7" fill="none"><path d="M120 680L600 455l485 228"/><path d="M160 735L600 525l445 210"/></g>
<g transform="translate(110 360)" filter="url(#glow)"><polygon points="0,56 62,24 124,56 62,88" fill="#0B2C68" stroke="#2F80ED"/><polygon points="0,56 62,88 62,220 0,188" fill="#03142F" stroke="#2457A3"/><polygon points="124,56 62,88 62,220 124,188" fill="url(#tower)" stroke="#2F80ED"/><g fill="#56C8FF"><rect x="18" y="108" width="33" height="5" rx="2"/><rect x="18" y="139" width="33" height="5" rx="2"/><rect x="18" y="170" width="33" height="5" rx="2"/></g></g>
<g transform="translate(965 365)" filter="url(#glow)"><polygon points="0,56 62,24 124,56 62,88" fill="#0B2C68" stroke="#2F80ED"/><polygon points="0,56 62,88 62,220 0,188" fill="#03142F" stroke="#2457A3"/><polygon points="124,56 62,88 62,220 124,188" fill="url(#tower)" stroke="#2F80ED"/><g fill="#56C8FF"><rect x="18" y="108" width="33" height="5" rx="2"/><rect x="18" y="139" width="33" height="5" rx="2"/><rect x="18" y="170" width="33" height="5" rx="2"/></g></g>
<g transform="translate(600 600)" filter="url(#glow)"><ellipse rx="330" ry="72" fill="#071731" stroke="#2F80ED" stroke-width="4"/><ellipse rx="260" ry="55" fill="none" stroke="#69A7FF" stroke-width="3"/><ellipse rx="175" ry="34" fill="#0C3E92" opacity=".42"/></g>
<image x="328" y="88" width="544" height="428" preserveAspectRatio="xMidYMid meet" href="logo-mark.svg"/>
<g fill="#69CFFF"><circle cx="286" cy="455" r="5"/><circle cx="905" cy="446" r="5"/><circle cx="1030" cy="250" r="4"/></g>
</svg>