<svg xmlns="http://www.w3.org/2000/svg" viewBox="0 0 1200 700"><defs><linearGradient id="b" x1="0" y1="0" x2="1" y2="1"><stop stop-color="#2FB9FF"/><stop offset=".55" stop-color="#245FF2"/><stop offset="1" stop-color="#7B4FFF"/></linearGradient><filter id="g"><feDropShadow dx="0" dy="0" stdDeviation="12" flood-color="#2F80ED" flood-opacity=".6"/></filter></defs><rect width="1200" height="700" fill="#020712"/><g transform="translate(170 95)" filter="url(#g)"><g transform="translate(0 190)"><polygon points="0,78 180,0 360,78 180,156" fill="#071B3F" stroke="#2F80ED"/><polygon points="0,78 180,156 180,270 0,192" fill="#04142F" stroke="#245EC6"/><polygon points="360,78 180,156 180,270 360,192" fill="#092454" stroke="#2F80ED"/></g><g transform="translate(250 95)"><polygon points="0,78 180,0 360,78 180,156" fill="url(#b)" stroke="#6AD4FF"/><polygon points="0,78 180,156 180,270 0,192" fill="#0A3D98"/><polygon points="360,78 180,156 180,270 360,192" fill="#182F9B"/></g><g transform="translate(500 0)"><polygon points="0,78 180,0 360,78 180,156" fill="#0C2B66" stroke="#2F80ED"/><polygon points="0,78 180,156 180,270 0,192" fill="#061633"/><polygon points="360,78 180,156 180,270 360,192" fill="#25136A"/></g><g transform="translate(620 290) scale(.58)"><path d="M64 54 245 18l40 22-149 29 75 43-136 28-44-25 92-20-76-42 17-9z" fill="url(#b)"/><path d="M211 112 75 140l60 35-103 23-21-13 151-35-59-34 108-23z" fill="#2467ef"/><path d="M32 198 135 175l52 30-158 35-19-12 22-30z" fill="url(#b)"/></g></g></svg>